<?xml version="1.0" encoding="utf-8"?>
<!-- Generator: Adobe Illustrator 19.2.1, SVG Export Plug-In . SVG Version: 6.00 Build 0)  -->
<svg version="1.1" id="layer" xmlns="http://www.w3.org/2000/svg" xmlns:xlink="http://www.w3.org/1999/xlink" x="0px" y="0px"
	 viewBox="0 0 652 652" style="enable-background:new 0 0 652 652;" xml:space="preserve">
<style type="text/css">
	.st0{clip-path:url(#SVGID_2_);fill:url(#SVGID_3_);}
	.st1{opacity:0.6;}
	.st2{fill:#00893D;}
	.st3{fill:#FFFFFF;}
	.st4{fill:#FFED00;}
</style>
<g>
	<defs>
		<rect id="SVGID_1_" x="20.9" y="173.5" width="600" height="297.9"/>
	</defs>
	<clipPath id="SVGID_2_">
		<use xlink:href="#SVGID_1_"  style="overflow:visible;"/>
	</clipPath>
	
		<linearGradient id="SVGID_3_" gradientUnits="userSpaceOnUse" x1="-77.9883" y1="633.1048" x2="-66.0435" y2="633.1048" gradientTransform="matrix(50.3069 0 0 -50.3069 3944.2344 32172.0117)">
		<stop  offset="0" style="stop-color:#00A84E"/>
		<stop  offset="0.313" style="stop-color:#00A84E"/>
		<stop  offset="0.4294" style="stop-color:#00A04A"/>
		<stop  offset="0.6137" style="stop-color:#00893F"/>
		<stop  offset="0.8415" style="stop-color:#00642D"/>
		<stop  offset="1" style="stop-color:#00461F"/>
	</linearGradient>
	<rect x="20.9" y="173.5" class="st0" width="600" height="297.9"/>
</g>
<g>
	<g class="st1">
		<g>
			<g>
				<path class="st2" d="M580.7,311.4c-9-5.6-22.4-10.4-40.2-14.5l-28.7-6.6c-13.8-3.2-23.6-7.2-29.3-11.9
					c-5.9-4.5-9.4-9.5-10.6-15.1c-1.5-6.8-0.8-15.6,3.1-22.7c3.9-7,11.1-11.6,21.6-14c13.6-3,26.9-3.3,39.4,3.8
					c12.4,7.1,21.6,20,29.6,34.8l12.1-2.7l-15.2-68.2l-10.4,2.3c-0.5,1.9-2.2,3.7-3.3,4.7c-2.1,1.9-3.7,3.2-7.6,4
					c-2.8,0.6-12.3,1.6-21.7,1.4c-4.2-0.1-8.3,0-12.2,0.3l-6.5-29.1l-24,5.3l6.2,27.7c-20.8,5.5-35.8,16.3-45,31.5
					c-9.8,16.1-12,36.4-7.9,54.7c3.2,14.5,10.3,27.2,20.7,36c10.3,8.9,25.5,14.8,45.9,19.8l38.7,9.3c8.3,2,14.5,4.3,18.6,6.8
					c7.5,4.6,12.4,12.2,14.3,20.6c2,8.9,0.7,16.7-3.7,23.4c-4.5,6.7-12.7,11.5-24.8,14.1c-13.2,2.9-25.4,2.9-40-3.6
					c-14.6-6.5-25.4-17.6-34.4-36.4l-13.1,2.9l15.6,70l11.3-2.5c1.4-5.5,3.4-6.8,4.8-9.3c1.5-2.5,3.5-4,6.1-4.6
					c1.1-0.2,2-0.4,2.7-0.4c0.7,0,2.7,0.2,5.8,0.6l8.7,1c10.1,1.2,11.5,1,18.2,0.8c2.7,0,6.1-0.4,9.6-1l5.6,25l24-5.3l-5.6-25.1
					c20.2-6.3,34.3-17.2,42.4-32.8c9.3-17.9,12-35.7,8.1-53.2C605.6,335.7,595.8,320.9,580.7,311.4"/>
			</g>
		</g>
	</g>
	<path class="st3" d="M232.6,270.8h-8.5l2.1-9.5h8.2l1.1-5c1.7-8.1,7.3-13.2,16-13.2c3.4,0,7.2,0.4,10.1,1.2l-2.6,9.3
		c-1.4-0.5-2.8-1-4.3-1c-3.2,0-5.3,2-6.2,6.3l-0.5,2.3h10.1l-2.1,9.5H246l-6.2,29.8h-13.5L232.6,270.8z"/>
	<path class="st3" d="M279.2,271.4c-6.2,0-10.1,6.7-10.1,12.7c0,5,2.6,8.4,7,8.3c6,0,9.8-5,9.8-13.5
		C285.9,275.1,284.2,271.4,279.2,271.4 M275.2,301.4c-13.8,0-19.4-7.7-19.4-17c0-13.1,9.4-22,24.1-22c12.7,0,19.4,7.3,19.4,16.7
		C299.2,294.6,289.1,301.4,275.2,301.4"/>
	<path class="st3" d="M326.9,271.4c-6.2,0-10.1,6.7-10.1,12.7c0,5,2.6,8.4,7,8.3c6,0,9.8-5,9.8-13.5
		C333.7,275.1,332,271.4,326.9,271.4 M322.9,301.4c-13.8,0-19.4-7.7-19.4-17c0-13.1,9.4-22,24.1-22c12.7,0,19.4,7.3,19.4,16.7
		C347,294.6,336.9,301.4,322.9,301.4"/>
	<path class="st3" d="M380.5,279.9c0-3.7-1.9-7.6-6.2-7.6c-6.1,0-9.7,5.8-9.7,11.6c0,4.6,2.1,7.7,6.2,7.7
		C376.8,291.5,380.5,284.8,380.5,279.9 M378.8,294.6h-0.1c-3.3,4.2-6.4,6.8-13.5,6.8c-8,0-13.9-7-13.9-15.4
		c0-12.2,6.2-23.6,18.9-23.6c6.5,0,11,2.9,13,6.9h0.1l4.5-22.4h12.7l-10,48.1c-0.4,2.2-0.6,4.1-0.8,5.6h-11.8L378.8,294.6z"/>
	<path class="st4" d="M483.3,352.8c-2.3-2.2-5.8-4.5-10.7-6.8l-7.9-3.8c-3.8-1.8-6.4-3.6-7.8-5.3c-1.4-1.7-2.1-3.4-2.1-5.1
		c0-2.1,0.8-4.6,2.4-6.4c1.6-1.8,4-2.7,7.2-2.7c4.1,0,8,0.8,11.2,3.7c3.1,2.9,5,7.2,6.4,12h3.7v-20.8h-3.2c-0.3,0.5-0.9,0.9-1.3,1.1
		c-0.7,0.4-1.3,0.7-2.5,0.7c-0.8,0-3.7-0.3-6.4-1c-1.2-0.3-2.4-0.5-3.6-0.7v-8.9h-7.3v8.4c-6.4,0.3-11.5,2.4-15.1,6.2
		c-3.9,4.1-5.8,9.8-5.8,15.4c0,4.4,1.2,8.6,3.7,11.8c2.4,3.2,6.4,5.9,12,8.7l10.6,5.2c2.3,1.1,3.9,2.2,5,3.2
		c1.9,1.8,2.8,4.3,2.8,6.9c0,2.7-0.9,4.9-2.6,6.6c-1.7,1.7-4.4,2.5-8.1,2.5c-4,0-7.6-0.8-11.4-3.6c-3.8-2.8-6.2-6.7-7.6-12.8h-4
		v21.3h3.5c0.8-1.5,1.4-1.8,2-2.4c0.6-0.6,1.3-0.9,2.1-0.9c0.3,0,0.6,0,0.8,0.1c0.2,0,0.8,0.2,1.7,0.6l2.5,0.8c2.8,1,3.3,1,5.2,1.4
		c0.8,0.2,1.8,0.3,2.8,0.3v7.6h7.3v-7.6c6.3-0.5,11.1-2.8,14.4-6.8c3.9-4.6,5.8-9.6,5.8-14.9C488.9,361.5,487,356.5,483.3,352.8"/>
	<path class="st4" d="M424.5,320.7c4.4,2.4,7.6,5.4,7.8,9.1c0.1,2.5,0,4.2-1.6,6c-1.6,1.9-3.9,2.4-6.6,1.6c-2.7-0.8-5.1-5-5.4-7.4
		c-0.1-0.9-1-2.5-1.6-3.1c-2.9-3.2-5.5-4-8.3-3.8c-4.6,0.4-8.1,2.6-10.4,8.2c-2,4.8-2.4,9.3-2.4,15.6c0,9,0.5,14.1,3.8,20.2
		c3.3,6.1,7.5,8.4,12.8,9.1c6.6,0.8,13.7-0.5,17.7-4.3l2.3,2.1c-1.7,4.9-6.4,9.9-12.2,12.3c-4.4,1.8-9.9,2.1-13.3,2.1
		c-8.5,0-15.5-3.3-20.9-9.9c-5.4-6.6-8.1-17-8.1-26.5c0-10,2.2-17.5,8-24.6c5.7-7,13.7-9.9,23.6-9.9
		C415.1,317.5,419.9,318.2,424.5,320.7"/>
	<path class="st4" d="M286.8,367.1h4.3c1.5,6,4.1,9.9,8.2,12.8c4.1,2.8,7.9,3.6,12.2,3.6c3.9,0,6.8-0.8,8.7-2.5
		c1.8-1.7,2.8-3.8,2.8-6.6c0-2.6-1-5.1-3-6.9c-1.1-1-2.9-2-5.3-3.2l-11.4-5.2c-6-2.8-10.2-5.5-12.8-8.7c-2.6-3.2-4-7.3-4-11.8
		c0-5.6,2.1-11.3,6.2-15.3c4.2-4,10-6.2,17.4-6.2c3.2,0,6.6,0.3,10.3,1.1c2.9,0.7,5.9,1,6.8,1c1.3,0,1.8-0.3,2.6-0.7
		c0.4-0.2,1.1-0.6,1.4-1.1h3.4v20.7h-4c-1.4-4.8-3.4-9.1-6.8-12c-3.4-2.9-7.6-3.7-12-3.7c-3.4,0-6,0.9-7.6,2.7
		c-1.7,1.8-2.5,4.3-2.5,6.4c0,1.7,0.7,3.4,2.2,5.1c1.5,1.7,4.2,3.5,8.3,5.3l8.5,3.8c5.2,2.3,9,4.6,11.5,6.8c4,3.7,6,8.6,6,14.1
		c0,5.3-2.1,10.3-6.2,14.9c-4.1,4.6-10.3,6.9-18.6,6.9c-2.1,0-5.6,0-7.7-0.4c-2.1-0.4-2.5-0.4-5.6-1.4l-2.6-0.8
		c-1-0.3-1.5-0.5-1.8-0.6c-0.2-0.1-0.5-0.1-0.9-0.1c-0.8,0-1.6,0.3-2.2,1c-0.6,0.6-1.3,0.9-2.1,2.4h-3.7V367.1z"/>
	<path class="st4" d="M368.7,318.5c0-0.5-0.5-1-1.1-0.9c0,0-18.6,3.7-23.9,4.2v3.5c2.6,0.5,4.4,1.4,5.2,2.5c0.9,1.1,1.3,3.2,1.3,6.2
		v40.7c0,3.4-0.6,5.7-1.9,7c-0.9,0.9-2.4,1.5-4.7,1.9v3.5h31v-3.5c-2.3-0.5-3.9-1.3-4.8-2.2c-0.8-0.9-1.3-3-1.3-6.2V318.5z"/>
	<path class="st4" d="M255.2,371.1c-2,1.6-5.4,4.2-9.9,4.2c-5.2,0-9.9-4.1-9.9-9.9c0-4.7,3.2-9.1,8-11.8c4.1-2.2,8-2.6,11.7-2.9
		V371.1z M278.4,379.7c0.5,0-2.1,0.3-3-0.7c-1.3-1.4-1.2-3.7-1.2-7.3v-25.4c0-7.8,0-11.6-1.6-16.1c-4.3-12.2-18.3-12.9-25.2-12.9
		c-6.5,0-14.8,1.9-21.5,6.7c-2.2,1.7-6,5.4-4.4,9.7c1.4,3.7,4.3,5.4,8.4,4.5c3.3-0.7,5.3-4.3,6.4-7.9c1.2-4.2,6.3-7.3,11.5-7.3
		c4.9,0,5.8,3.5,6.2,4.1c1.1,1.8,1.4,4.3,1.4,9.3v8.3c-9.9,1-22.1,2.4-30.6,10.2c-5.7,5-7.1,10.4-7.1,15.1c0,7,4.3,18,17.5,18
		c5.3,0,9.2-1.8,11.2-2.9c5.1-2.7,8.2-6.3,9.7-8.1c0.1,2.2,0.5,7.5,5.7,10.4c1.3,0.7,2.9,1.2,4.7,1.2c2.8,0,5.8-0.1,9.1-1.6
		c3.1-1.4,5.2-2.9,6.1-4.2L278.4,379.7z"/>
	<path class="st4" d="M182.6,376.1c-3.5,4.8-12.8,5.6-21.7,5.6v-43.6c7.8-0.1,13.6,0.9,17.3,2.9c6.1,3.4,8.5,9.8,8.5,20.1
		C186.6,368.2,185.2,372.6,182.6,376.1 M180.4,300.8c1.6,2.7,2.6,7.7,2.6,12.9c0,7.4-0.9,12.2-4,15.1c-3.1,2.9-9.1,4.3-18.1,4.3
		l-0.1-38.1C169.6,295.1,177.4,295.6,180.4,300.8 M201.1,339.2c-4.7-3.1-10.8-4.5-12.4-4.3c-0.2,0-0.3,0.1-0.5,0.1
		c-0.6,0-1.1,0-1.1-0.4c0-0.4,0.5-0.4,1.1-0.4c0.2,0,0.3,0,0.5,0.1c0.1,0,0.2,0,0.3,0c1.9,0.1,6.8-0.7,12-5.1
		c4.3-3.5,5.4-10.8,5.4-16.8c0-9.8-4.6-16.4-15.2-20.1c-5.6-1.9-12.8-2.3-21.3-2.3h-44.4v3.7c4.1,0.2,6.9,0.8,8.5,1.7
		c2.6,1.4,3.9,4.3,3.9,8.5v69.5c0,4.2-1.4,7.1-4.2,8.6c-1.7,0.9-4.4,1.4-8.2,1.6v3.7h46.1c12.2,0,21.9-1.6,29.3-6.5
		c7.3-4.9,9.4-13.2,9.4-21.1C210.4,350.9,208.8,344,201.1,339.2"/>
</g>
</svg>
