<?xml version="1.0" encoding="UTF-8" standalone="no"?>
<!-- Created with Inkscape (http://www.inkscape.org/) -->

<svg
   xmlns:dc="http://purl.org/dc/elements/1.1/"
   xmlns:cc="http://creativecommons.org/ns#"
   xmlns:rdf="http://www.w3.org/1999/02/22-rdf-syntax-ns#"
   xmlns:svg="http://www.w3.org/2000/svg"
   xmlns="http://www.w3.org/2000/svg"
   xmlns:sodipodi="http://sodipodi.sourceforge.net/DTD/sodipodi-0.dtd"
   xmlns:inkscape="http://www.inkscape.org/namespaces/inkscape"
   width="214.20201"
   height="37.709"
   viewBox="0 0 214.20201 37.708999"
   id="svg5463"
   version="1.1"
   inkscape:version="0.91 r13725"
   sodipodi:docname="loblawsCR.svg">
  <defs
     id="defs5465">
	
	
	
	
	
	
</defs>
  <sodipodi:namedview
     id="base"
     pagecolor="#ffffff"
     bordercolor="#666666"
     borderopacity="1.0"
     inkscape:pageopacity="0.0"
     inkscape:pageshadow="2"
     inkscape:zoom="4.2296044"
     inkscape:cx="106.984"
     inkscape:cy="18.6045"
     inkscape:document-units="px"
     inkscape:current-layer="layer1"
     showgrid="false"
     fit-margin-top="0"
     fit-margin-left="0"
     fit-margin-right="0"
     fit-margin-bottom="0"
     units="px"
     inkscape:window-width="1280"
     inkscape:window-height="744"
     inkscape:window-x="-4"
     inkscape:window-y="-4"
     inkscape:window-maximized="1" />
  <metadata
     id="metadata5468">
    <rdf:RDF>
      <cc:Work
         rdf:about="">
        <dc:format>image/svg+xml</dc:format>
        <dc:type
           rdf:resource="http://purl.org/dc/dcmitype/StillImage" />
        <dc:title></dc:title>
      </cc:Work>
    </rdf:RDF>
  </metadata>
  <g
     inkscape:label="Layer 1"
     inkscape:groupmode="layer"
     id="layer1"
     transform="translate(-1147.3017,-653.2577)">
    <path
       style="fill:#ff0000"
       inkscape:connector-curvature="0"
       d="m 1185.5557,674.6297 c 0,0 -8.485,0 -9.192,0 -13.522,0.266 -12.815,-11.224 -12.815,-11.224 l 0,-9.898 -15.997,0 0,15.865 c 0,2.209 2.077,21.344 21.962,21.344 11.843,0 16.042,0 16.042,0 l 0,-16.087"
       id="path5474" />
    <path
       style="fill:#ff7f00"
       inkscape:connector-curvature="0"
       d="m 1165.2277,653.5077 0,8.837 c 0,0 -1.326,10.783 10.296,10.694 1.546,0 10.032,0 10.032,0 l 0,-6.981 -4.464,0 c 0,0 -8.617,1.104 -8.528,-5.524 0,-0.84 0,-7.026 0,-7.026 l -7.336,0"
       id="path5476" />
    <path
       style="fill:#ff7f00"
       inkscape:connector-curvature="0"
       d="m 1174.4187,653.5077 0,5.877 c 0,0 -0.663,5.214 6.187,5.038 0.751,0 4.95,0 4.95,0 l 0,-5.17 -2.785,0 c 0,0 -3.358,0.22 -3.314,-3.535 0,-1.238 0,-2.21 0,-2.21 l -5.038,0"
       id="path5478" />
    <path
       style="fill:#ff7f00"
       inkscape:connector-curvature="0"
       d="m 1181.3127,653.5077 4.243,0 0,4.11 c 0,0 -4.243,0.663 -4.243,-1.679 0,-1.768 0,-2.431 0,-2.431"
       id="path5480" />
    <path
       inkscape:connector-curvature="0"
       d="m 1352.1947,673.0397 c -4.462,-1.016 -8.838,-1.369 -8.838,-4.109 0,-2.209 2.563,-2.563 4.332,-2.563 2.783,0 5.124,0.795 5.346,3.756 l 7.424,0 c -0.618,-6.805 -6.319,-8.838 -12.551,-8.838 -2.872,0 -5.787,0.442 -8.086,1.591 l 0.266,-0.84 -7.999,0 -5.214,18.737 -0.132,0 -4.861,-18.737 -7.602,0 -4.728,18.781 -0.089,0 -5.214,-18.781 -8.265,0 0.266,0.708 c -2.475,-1.105 -5.611,-1.458 -8.439,-1.458 -0.31,0 -0.618,0 -0.884,0.044 -5.569,0.177 -11.004,2.077 -12.285,7.556 l 0,-15.379 -7.822,0 0,14.804 c -2.121,-4.816 -6.318,-7.026 -10.296,-7.026 -0.929,0 -1.812,0.088 -2.695,0.266 -2.519,0.53 -4.817,1.767 -6.231,3.844 l -0.133,0 0,-11.888 -7.821,0 0,14.185 c -2.386,-4.021 -6.85,-6.408 -12.55,-6.408 -8.926,0 -14.715,5.79 -14.715,14.626 0,2.122 0.354,4.11 1.016,5.834 -2.474,0 -5.568,0 -7.953,0 -6.408,0 -6.32,-3.005 -6.32,-5.436 l 0,-22.801 -7.866,0 c 0,0 0.089,22.582 0,26.956 0,8.751 6.85,9.016 12.86,9.016 l 13.389,0 0,-2.033 c 2.475,1.944 5.701,3.006 9.589,3.006 5.701,0 10.164,-2.387 12.55,-6.409 l 0,5.657 7.424,0 0,-3.535 0.133,0 c 1.325,2.387 3.711,3.668 6.628,4.109 0.84,0.133 1.767,0.178 2.695,0.178 3.978,0 8.175,-2.21 10.296,-7.027 l 0,6.275 7.822,0 0,-3.182 c 1.635,2.651 4.86,3.934 8.573,3.934 1.237,0 2.474,-0.134 3.712,-0.398 2.208,-0.442 4.286,-1.414 5.877,-3.05 0.044,0.928 0.265,1.857 0.53,2.696 l 7.954,0 c -0.707,-1.105 -1.017,-3.624 -1.017,-6.143 l 0,-8.309 4.729,14.451 8.087,0 4.861,-18.561 0.087,0 5.038,18.561 8.087,0 5.259,-16.307 c 1.547,2.432 4.817,3.447 8.131,4.153 5.612,1.194 8.882,1.989 8.882,4.287 0,2.696 -2.872,3.535 -5.169,3.535 -3.05,0 -5.922,-1.326 -5.966,-4.64 l -7.424,0 c 0.354,7.291 6.761,9.723 13.39,9.723 6.451,0 12.991,-2.343 12.991,-9.635 10e-4,-5.125 -4.507,-6.76 -9.059,-7.776 z m -125.101,11.666 c -5.303,0 -6.894,-4.418 -6.894,-8.794 0,-4.418 1.59,-8.881 6.894,-8.881 5.259,0 6.85,4.463 6.85,8.881 -10e-4,4.376 -1.592,8.794 -6.85,8.794 z m 26.779,0 -0.044,0 c -4.596,0 -6.628,-4.242 -6.628,-8.794 0,-4.684 2.032,-8.881 6.628,-8.881 l 0.044,0 c 4.596,0 6.629,4.198 6.629,8.881 0,4.595 -2.033,8.794 -6.629,8.794 z m 38.622,-5.701 c 0,1.591 -0.221,5.922 -5.567,6.318 -0.266,0 -0.53,0.045 -0.796,0.045 -2.52,0 -4.773,-0.706 -4.773,-3.535 0,-2.783 2.21,-3.579 4.597,-4.064 0.309,-0.045 0.664,-0.089 0.973,-0.134 2.164,-0.309 4.419,-0.485 5.567,-1.457 l 0,2.827 z m -5.567,-5.701 c -1.149,0.134 -2.431,0.267 -3.712,0.487 -3.403,0.442 -6.85,1.325 -8.573,4.021 l 0,-7.248 7.601,0 c 0.266,-2.828 1.989,-4.065 4.685,-4.198 0.132,0 0.309,0 0.485,0 2.739,0 5.082,0.53 5.082,3.756 -10e-4,2.299 -2.388,2.786 -5.568,3.182 z"
       id="path5482" />
  </g>
</svg>
