<?xml version="1.0" encoding="utf-8"?>
<!-- Generator: Adobe Illustrator 12.0.0, SVG Export Plug-In . SVG Version: 6.00 Build 51448)  -->
<!DOCTYPE svg PUBLIC "-//W3C//DTD SVG 1.1//EN" "http://www.w3.org/Graphics/SVG/1.1/DTD/svg11.dtd" [
	<!ENTITY ns_svg "http://www.w3.org/2000/svg">
	<!ENTITY ns_xlink "http://www.w3.org/1999/xlink">
]>
<svg  version="1.1" id="Layer_1" xmlns="&ns_svg;" xmlns:xlink="&ns_xlink;" width="188.667" height="47.667"
	 viewBox="0 0 188.667 47.667" overflow="visible" enable-background="new 0 0 188.667 47.667" xml:space="preserve">
<g>
	<path fill="none" d="M1.452,3.36c25.381,0,50.762,0,76.143,0c34.061,0,68.122,0,102.181,0c2.474,0,4.947,0,7.421,0
		c0.14,0,0.067,16.236,0.067,17.371c0,7.727,0,15.453,0,23.181c0,0.658-4.462,0.296-5.092,0.296c-32.839,0-65.676,0-98.512,0
		c-27.314,0-54.629,0-81.942,0C1.182,44.208,1.452,7.484,1.452,3.36"/>
	<path fill="none" d="M1.452,3.36c25.381,0,50.762,0,76.143,0c34.061,0,68.122,0,102.181,0c2.474,0,4.947,0,7.421,0
		c0.14,0,0.067,16.236,0.067,17.371c0,7.727,0,15.453,0,23.181c0,0.658-4.462,0.296-5.092,0.296c-32.839,0-65.676,0-98.512,0
		c-27.314,0-54.629,0-81.942,0C1.182,44.208,1.452,7.484,1.452,3.36"/>
	<path fill="#E01F22" d="M165.706,44.197c-10.23,0-17.952-7.199-15.63-17.782c2.149-9.801,11.563-15.727,21.258-15.692
		c4.91,0.002,10.298,1.601,13.416,5.618c3.108,4.004,2.99,9.542,1.502,14.164C183.448,39.212,174.553,44.169,165.706,44.197
		 M165.05,20.699c-2.306,2.497-3.146,6.4-3.146,9.704c0.016,1.222,0.153,2.478,0.713,3.584c0.485,0.959,2.542,1.815,1.827,2.718
		c0.153-1.211,1.656-0.296,2.542-0.296c1.284,0.004,2.547-0.35,3.614-1.073c2.86-1.939,3.887-5.851,4.268-9.08
		c0.339-2.868,0.065-6.673-3.293-7.557C169.241,18.07,166.66,18.938,165.05,20.699"/>
	<path fill="#E01F22" d="M125.253,11.785c4,0,8,0,12,0c-0.235,1.292-0.47,2.585-0.711,3.876c3.778-3.833,9.553-4.996,14.719-4.348
		c-0.708,3.544-1.418,7.087-2.126,10.631c0.016-0.079-6.815,0.312-7.608,0.585c-4.155,1.436-6.786,3.9-7.816,8.24
		c-0.349,1.485-1.862,12.51-2.842,12.511c-3.865,0.006-7.73,0.011-11.597,0.017C121.266,32.792,123.259,22.289,125.253,11.785"/>
	<path fill="#E01F22" d="M100.472,40.958c-6.767-5.332-2.72-14.746-1.167-21.672c-1.467,0-2.934,0-4.4,0
		c0.457-2.48,0.914-4.96,1.371-7.44c0.04-0.215,3.19-0.061,3.549-0.061c1.351,0,1.055-1.399,1.287-2.62
		c0.079-0.422,0.192-2.54,0.639-2.658c1.28-0.341,2.561-0.683,3.841-1.024c2.655-0.708,5.31-1.415,7.964-2.123
		c-0.551,2.808-1.103,5.616-1.654,8.424c2.595,0,5.189,0,7.783,0c-0.21,1.151-0.422,2.303-0.632,3.455
		c-0.127,0.692-0.194,3.592-0.741,4.046c-0.772,0.642-7.407-0.737-7.584,0.045c-1.246,5.498-5.721,17.286,4.327,15.979
		c-0.451,2.587-0.901,5.175-1.354,7.762c-0.147,0.851-4.308,0.714-4.96,0.714C105.736,43.753,102.85,42.831,100.472,40.958"/>
	<path fill="#E01F22" d="M69.776,43.892c-6.262-0.904-11.137-4.779-12.314-11.207c-1.199-6.544,1.679-14.405,7.085-18.337
		c5.246-3.815,13.567-4.868,19.527-2.223c3.231,1.434,5.935,4,7.228,7.322c0.479,1.23,1.882,9.796-0.118,9.796
		c-6.513,0-13.025-0.05-19.537-0.076c-1.12-0.005-2.241-0.009-3.361-0.014c-1.373-0.005,1.71,4.957,2.17,5.372
		c4.918,4.431,13.299,1.813,18.658-0.378c-0.933,2.588-1.866,5.176-2.799,7.764c-0.428,1.185-5.381,1.73-6.43,1.89
		C76.556,44.303,73.114,44.372,69.776,43.892 M81.696,23.009c0.463-3.238-1.438-5.648-4.734-5.682c-3.534,0-6.285,2.402-7.352,5.682
		C73.639,23.009,77.667,23.009,81.696,23.009"/>
	<path fill="#E01F22" d="M19.635,43.309c1.201-5.432,2.402-10.863,3.604-16.295c0.323-1.464,1.443-4.105,0.788-5.627
		c-0.966-2.244-4.075-1.435-5.294,0.025c-0.669,0.803-0.81,1.794-1.03,2.771c-1.354,6.038-2.71,12.077-4.065,18.115
		c-0.398,1.775-2.186,1.011-3.871,1.011c-2.771,0-5.543,0-8.314,0c1.469-6.839,2.728-13.76,4.432-20.543
		c2.156-8.58,8.871-13.283,17.704-12.17c1.852,0.233,3.646,0.828,5.214,1.85c0.583,0.38,2.135,2.257,2.659,2.318
		c3.192-2.489,7.375-4.257,11.464-4.257c3.126,0,6.577,0.499,8.964,2.712c2.907,2.704,2.955,6.987,2.186,10.605
		c-0.753,3.542-1.507,7.083-2.26,10.625c-0.167,0.788-1.447,8.86-2.038,8.86c-3.854,0-7.708,0-11.563,0c-0.113,0-0.225,0-0.338,0
		c1.102-5.357,2.204-10.715,3.305-16.073c0.306-1.484,1.411-4.197,0.746-5.733c-0.968-2.236-4.06-1.448-5.288,0.02
		c-0.693,0.828-0.808,1.805-1.008,2.812c-1.186,5.976-2.373,11.955-3.559,17.932c-0.364,1.836-2.208,1.043-3.934,1.043
		C25.304,43.309,22.47,43.309,19.635,43.309"/>
</g>
</svg>
